{
  "accessors": [
    {
      "bufferView": 3,
      "componentType": 5126,
      "count": 2000,
      "max": [
        0.12412593513727188,
        0.26633772253990173,
        0.12480181455612183
      ],
      "min": [
        -0.13347552716732025,
        -0.14617690443992615,
        -0.1620008498430252
      ],
      "type": "VEC3"
    },
    {
      "bufferView": 3,
      "byteOffset": 24000,
      "componentType": 5126,
      "count": 2000,
      "max": [
        0.9965646862983704,
        0.9969649910926819,
        0.995108425617218
      ],
      "min": [
        -0.9995249509811401,
        -0.9924014806747437,
        -0.9997137188911438
      ],
      "type": "VEC3"
    },
    {
      "bufferView": 4,
      "componentType": 5126,
      "count": 2000,
      "max": [
        0.9996011853218079,
        0.9985766410827637,
        0.9975906014442444,
        1.0
      ],
      "min": [
        -0.999629020690918,
        -0.9965298771858215,
        -0.9990267157554626,
        -1.0
      ],
      "type": "VEC4"
    },
    {
      "bufferView": 2,
      "componentType": 5126,
      "count": 2000,
      "max": [
        0.9782000184059143,
        0.9975000023841858
      ],
      "min": [
        0.0203000009059906,
        0.01720000058412552
      ],
      "type": "VEC2"
    },
    {
      "bufferView": 1,
      "componentType": 5125,
      "count": 5820,
      "type": "SCALAR"
    },
    {
      "bufferView": 3,
      "byteOffset": 48000,
      "componentType": 5126,
      "count": 2229,
      "max": [
        0.20366829633712769,
        0.2775845229625702,
        0.12513160705566406
      ],
      "min": [
        -0.20036828517913818,
        -0.14435455203056335,
        -0.16457462310791016
      ],
      "type": "VEC3"
    },
    {
      "bufferView": 3,
      "byteOffset": 74748,
      "componentType": 5126,
      "count": 2229,
      "max": [
        0.9959670305252075,
        0.9996284246444702,
        0.9918471574783325
      ],
      "min": [
        -0.9998370409011841,
        -0.7776446342468262,
        -0.9996445178985596
      ],
      "type": "VEC3"
    },
    {
      "bufferView": 4,
      "byteOffset": 32000,
      "componentType": 5126,
      "count": 2229,
      "max": [
        0.9999439120292664,
        0.9905577898025513,
        0.9853041768074036,
        1.0
      ],
      "min": [
        -0.9999715685844421,
        -0.9763979911804199,
        -0.9845456480979919,
        -1.0
      ],
      "type": "VEC4"
    },
    {
      "bufferView": 2,
      "byteOffset": 16000,
      "componentType": 5126,
      "count": 2229,
      "max": [
        0.8621000051498413,
        0.8806999921798706
      ],
      "min": [
        0.007400000002235174,
        0.008200000040233135
      ],
      "type": "VEC2"
    },
    {
      "bufferView": 1,
      "byteOffset": 23280,
      "componentType": 5125,
      "count": 8448,
      "type": "SCALAR"
    },
    {
      "bufferView": 3,
      "byteOffset": 101496,
      "componentType": 5126,
      "count": 2665,
      "max": [
        0.19916591048240662,
        0.2828372120857239,
        0.1466270536184311
      ],
      "min": [
        -0.1996178776025772,
        -0.14671294391155243,
        -0.17855462431907654
      ],
      "type": "VEC3"
    },
    {
      "bufferView": 3,
      "byteOffset": 133476,
      "componentType": 5126,
      "count": 2665,
      "max": [
        0.9970494508743286,
        0.9999926090240479,
        0.9990870952606201
      ],
      "min": [
        -0.9957014918327332,
        -0.5967653393745422,
        -0.9999598264694214
      ],
      "type": "VEC3"
    },
    {
      "bufferView": 4,
      "byteOffset": 67664,
      "componentType": 5126,
      "count": 2665,
      "max": [
        0.999794602394104,
        0.9976319074630737,
        0.9849438071250916,
        1.0
      ],
      "min": [
        -0.9999265670776367,
        -0.9982304573059082,
        -0.9990646839141846,
        -1.0
      ],
      "type": "VEC4"
    },
    {
      "bufferView": 2,
      "byteOffset": 33832,
      "componentType": 5126,
      "count": 2665,
      "max": [
        0.9557999968528748,
        0.8776000142097473
      ],
      "min": [
        0.002199999988079071,
        0.012000000104308128
      ],
      "type": "VEC2"
    },
    {
      "bufferView": 1,
      "byteOffset": 57072,
      "componentType": 5125,
      "count": 9378,
      "type": "SCALAR"
    },
    {
      "bufferView": 3,
      "byteOffset": 165456,
      "componentType": 5126,
      "count": 1850,
      "max": [
        0.19284111261367798,
        0.2866964638233185,
        0.13591131567955017
      ],
      "min": [
        -0.19104188680648804,
        -0.11830490082502365,
        -0.18196479976177216
      ],
      "type": "VEC3"
    },
    {
      "bufferView": 3,
      "byteOffset": 187656,
      "componentType": 5126,
      "count": 1850,
      "max": [
        0.9894533157348633,
        0.9988688826560974,
        0.9973179697990417
      ],
      "min": [
        -0.9847704172134399,
        -0.9981839060783386,
        -0.9995785355567932
      ],
      "type": "VEC3"
    },
    {
      "bufferView": 4,
      "byteOffset": 110304,
      "componentType": 5126,
      "count": 1850,
      "max": [
        0.9994523525238037,
        0.9896167516708374,
        0.9975218176841736,
        1.0
      ],
      "min": [
        -0.9994557499885559,
        -0.9989785552024841,
        -0.9969736337661743,
        -1.0
      ],
      "type": "VEC4"
    },
    {
      "bufferView": 2,
      "byteOffset": 55152,
      "componentType": 5126,
      "count": 1850,
      "max": [
        0.9861999750137329,
        0.8745999932289124
      ],
      "min": [
        0.0071000000461936,
        0.010534495115280151
      ],
      "type": "VEC2"
    },
    {
      "bufferView": 1,
      "byteOffset": 94584,
      "componentType": 5125,
      "count": 6300,
      "type": "SCALAR"
    },
    {
      "bufferView": 5,
      "componentType": 5126,
      "count": 21,
      "max": [
        1.0,
        0.5028140544891357,
        1.3877787807814457e-15,
        0.0,
        7.320532221589179e-15,
        1.0,
        7.24324280554356e-08,
        0.0,
        0.608072817325592,
        0.9454450607299805,
        1.0,
        0.0,
        0.139264315366745,
        0.15317955613136292,
        0.13535529375076294,
        1.0
      ],
      "min": [
        -0.6843312978744507,
        -0.7005507946014404,
        -0.9632259607315063,
        0.0,
        -0.9981541037559509,
        0.06072961166501045,
        -9.778899112689032e-08,
        0.0,
        -1.3877787807814457e-15,
        -5.551115123125783e-15,
        -0.9793270230293274,
        0.0,
        -0.12723472714424133,
        -0.1012195572257042,
        -0.14109936356544495,
        1.0
      ],
      "type": "MAT4"
    },
    {
      "bufferView": 0,
      "componentType": 5123,
      "count": 2000,
      "type": "VEC4"
    },
    {
      "bufferView": 4,
      "byteOffset": 139904,
      "componentType": 5126,
      "count": 2000,
      "max": [
        1.0,
        0.4979282021522522,
        0.29135942459106445,
        0.13910309970378876
      ],
      "min": [
        0.3633010685443878,
        0.0,
        0.0,
        0.0
      ],
      "type": "VEC4"
    },
    {
      "bufferView": 0,
      "byteOffset": 16000,
      "componentType": 5123,
      "count": 2229,
      "type": "VEC4"
    },
    {
      "bufferView": 4,
      "byteOffset": 171904,
      "componentType": 5126,
      "count": 2229,
      "max": [
        1.0,
        0.4985453486442566,
        0.2930639982223511,
        0.14015154540538788
      ],
      "min": [
        0.3408505916595459,
        0.0,
        0.0,
        0.0
      ],
      "type": "VEC4"
    },
    {
      "bufferView": 0,
      "byteOffset": 33832,
      "componentType": 5123,
      "count": 2665,
      "type": "VEC4"
    },
    {
      "bufferView": 4,
      "byteOffset": 207568,
      "componentType": 5126,
      "count": 2665,
      "max": [
        1.0,
        0.49995261430740356,
        0.3122996389865875,
        0.16758498549461365
      ],
      "min": [
        0.35867226123809814,
        0.0,
        0.0,
        0.0
      ],
      "type": "VEC4"
    },
    {
      "bufferView": 0,
      "byteOffset": 55152,
      "componentType": 5123,
      "count": 1850,
      "type": "VEC4"
    },
    {
      "bufferView": 4,
      "byteOffset": 250208,
      "componentType": 5126,
      "count": 1850,
      "max": [
        1.0,
        0.49960264563560486,
        0.29330286383628845,
        0.14907072484493256
      ],
      "min": [
        0.3627833425998688,
        0.0,
        0.0,
        0.0
      ],
      "type": "VEC4"
    }
  ],
  "asset": {
    "extras": {
      "author": "zHairezt (https://sketchfab.com/zHairezt)",
      "license": "CC-BY-4.0 (http://creativecommons.org/licenses/by/4.0/)",
      "source": "https://sketchfab.com/3d-models/high-short-ponytail-with-bones-c25976cde083429ca0816b82cb824906",
      "title": "High Short Ponytail (With Bones)"
    },
    "generator": "Sketchfab-16.23.0",
    "version": "2.0"
  },
  "bufferViews": [
    {
      "buffer": 0,
      "byteLength": 69952,
      "byteStride": 8,
      "name": "shortBufferViews",
      "target": 34962
    },
    {
      "buffer": 0,
      "byteLength": 119784,
      "byteOffset": 69952,
      "name": "floatBufferViews",
      "target": 34963
    },
    {
      "buffer": 0,
      "byteLength": 69952,
      "byteOffset": 189736,
      "byteStride": 8,
      "name": "floatBufferViews",
      "target": 34962
    },
    {
      "buffer": 0,
      "byteLength": 209856,
      "byteOffset": 259688,
      "byteStride": 12,
      "name": "floatBufferViews",
      "target": 34962
    },
    {
      "buffer": 0,
      "byteLength": 279808,
      "byteOffset": 469544,
      "byteStride": 16,
      "name": "floatBufferViews",
      "target": 34962
    },
    {
      "buffer": 0,
      "byteLength": 1344,
      "byteOffset": 749352,
      "name": "floatBufferViews"
    }
  ],
  "buffers": [
    {
      "byteLength": 750696,
      "uri": "scene.bin"
    }
  ],
  "extensionsUsed": [
    "KHR_materials_specular"
  ],
  "images": [
    {
      "uri": "textures/IP_SCBE_F_HAIR_11_shd_1_baseColor.png"
    },
    {
      "uri": "textures/IP_SCBE_F_HAIR_11_shd_1_normal.png"
    },
    {
      "uri": "textures/IP_SCBE_F_HAIR_11_shd_1_specularf0.png"
    }
  ],
  "materials": [
    {
      "alphaMode": "BLEND",
      "doubleSided": true,
      "extensions": {
        "KHR_materials_specular": {
          "specularColorFactor": [
            1.0,
            1.0,
            1.0
          ],
          "specularFactor": 1.0,
          "specularTexture": {
            "index": 2
          }
        }
      },
      "name": "IP_SCBE_F_HAIR_11_shd_1",
      "normalTexture": {
        "index": 1
      },
      "pbrMetallicRoughness": {
        "baseColorTexture": {
          "index": 0
        },
        "metallicFactor": 0.0,
        "roughnessFactor": 0.8231237250771757
      }
    },
    {
      "alphaMode": "BLEND",
      "doubleSided": true,
      "extensions": {
        "KHR_materials_specular": {
          "specularColorFactor": [
            1.0,
            1.0,
            1.0
          ],
          "specularFactor": 1.0,
          "specularTexture": {
            "index": 2
          }
        }
      },
      "name": "IP_SCBE_F_HAIR_11_shd_2",
      "normalTexture": {
        "index": 1
      },
      "pbrMetallicRoughness": {
        "baseColorTexture": {
          "index": 0
        },
        "metallicFactor": 0.0,
        "roughnessFactor": 0.8231237250771757
      }
    },
    {
      "alphaMode": "BLEND",
      "doubleSided": true,
      "extensions": {
        "KHR_materials_specular": {
          "specularColorFactor": [
            1.0,
            1.0,
            1.0
          ],
          "specularFactor": 1.0,
          "specularTexture": {
            "index": 2
          }
        }
      },
      "name": "IP_SCBE_F_HAIR_11_shd_3",
      "normalTexture": {
        "index": 1
      },
      "pbrMetallicRoughness": {
        "baseColorTexture": {
          "index": 0
        },
        "metallicFactor": 0.0,
        "roughnessFactor": 0.8231237250771757
      }
    },
    {
      "alphaMode": "BLEND",
      "doubleSided": true,
      "extensions": {
        "KHR_materials_specular": {
          "specularColorFactor": [
            1.0,
            1.0,
            1.0
          ],
          "specularFactor": 1.0,
          "specularTexture": {
            "index": 2
          }
        }
      },
      "name": "IP_SCBE_F_HAIR_11_shd_4",
      "normalTexture": {
        "index": 1
      },
      "pbrMetallicRoughness": {
        "baseColorTexture": {
          "index": 0
        },
        "metallicFactor": 0.0,
        "roughnessFactor": 0.8231237250771757
      }
    }
  ],
  "meshes": [
    {
      "name": "IP_SCBE_F_HAIR_11_IP_SCBE_F_HAIR_11_shd 1_0",
      "primitives": [
        {
          "attributes": {
            "JOINTS_0": 21,
            "NORMAL": 1,
            "POSITION": 0,
            "TANGENT": 2,
            "TEXCOORD_0": 3,
            "TEXCOORD_1": 3,
            "TEXCOORD_2": 3,
            "WEIGHTS_0": 22
          },
          "indices": 4,
          "material": 0,
          "mode": 4
        }
      ]
    },
    {
      "name": "IP_SCBE_F_HAIR_11_IP_SCBE_F_HAIR_11_shd 2_0",
      "primitives": [
        {
          "attributes": {
            "JOINTS_0": 23,
            "NORMAL": 6,
            "POSITION": 5,
            "TANGENT": 7,
            "TEXCOORD_0": 8,
            "TEXCOORD_1": 8,
            "TEXCOORD_2": 8,
            "WEIGHTS_0": 24
          },
          "indices": 9,
          "material": 1,
          "mode": 4
        }
      ]
    },
    {
      "name": "IP_SCBE_F_HAIR_11_IP_SCBE_F_HAIR_11_shd 3_0",
      "primitives": [
        {
          "attributes": {
            "JOINTS_0": 25,
            "NORMAL": 11,
            "POSITION": 10,
            "TANGENT": 12,
            "TEXCOORD_0": 13,
            "TEXCOORD_1": 13,
            "TEXCOORD_2": 13,
            "WEIGHTS_0": 26
          },
          "indices": 14,
          "material": 2,
          "mode": 4
        }
      ]
    },
    {
      "name": "IP_SCBE_F_HAIR_11_IP_SCBE_F_HAIR_11_shd 4_0",
      "primitives": [
        {
          "attributes": {
            "JOINTS_0": 27,
            "NORMAL": 16,
            "POSITION": 15,
            "TANGENT": 17,
            "TEXCOORD_0": 18,
            "TEXCOORD_1": 18,
            "TEXCOORD_2": 18,
            "WEIGHTS_0": 28
          },
          "indices": 19,
          "material": 3,
          "mode": 4
        }
      ]
    }
  ],
  "nodes": [
    {
      "children": [
        1
      ],
      "matrix": [
        1.0,
        0.0,
        0.0,
        0.0,
        0.0,
        2.220446049250313e-16,
        -1.0,
        0.0,
        0.0,
        1.0,
        2.220446049250313e-16,
        0.0,
        0.0,
        0.0,
        0.0,
        1.0
      ],
      "name": "Sketchfab_model"
    },
    {
      "children": [
        2
      ],
      "matrix": [
        0.009999999776482582,
        0.0,
        0.0,
        0.0,
        0.0,
        0.0,
        0.009999999776482582,
        0.0,
        0.0,
        -0.009999999776482582,
        0.0,
        0.0,
        0.0,
        0.0,
        0.0,
        1.0
      ],
      "name": "52cd4f6aac324d02bad5ced2320f4104.fbx"
    },
    {
      "children": [
        3
      ],
      "name": "RootNode"
    },
    {
      "children": [
        4
      ],
      "name": "IP_SCBE_F_HAIR_11"
    },
    {
      "children": [
        5,
        6,
        7,
        8,
        9
      ],
      "name": "Object_4"
    },
    {
      "children": [
        10
      ],
      "name": "_rootJoint"
    },
    {
      "mesh": 0,
      "name": "Object_6",
      "skin": 0
    },
    {
      "mesh": 1,
      "name": "Object_7",
      "skin": 0
    },
    {
      "mesh": 2,
      "name": "Object_8",
      "skin": 0
    },
    {
      "mesh": 3,
      "name": "Object_9",
      "skin": 0
    },
    {
      "children": [
        11
      ],
      "name": "head_00",
      "translation": [
        4.3840572465310467e-23,
        -1.776356799695581e-17,
        0.0
      ]
    },
    {
      "children": [
        12,
        14,
        17,
        20,
        23,
        26,
        29
      ],
      "name": "hairAll_01",
      "translation": [
        5.334663266687301e-10,
        0.07999999821186066,
        0.003819387871772051
      ]
    },
    {
      "children": [
        13
      ],
      "name": "headUpper_02",
      "translation": [
        -4.667805448806475e-14,
        0.021219559013843536,
        2.468798498966862e-10
      ]
    },
    {
      "name": "foreHead_03",
      "translation": [
        0.0,
        0.0,
        0.009999999776482582
      ]
    },
    {
      "children": [
        15
      ],
      "name": "joint1_05",
      "rotation": [
        0.27423202991485596,
        -0.4949517250061035,
        -0.3995928466320038,
        0.7212110161781311
      ],
      "translation": [
        -0.12165925651788712,
        -0.026643695309758186,
        -0.06106991693377495
      ]
    },
    {
      "children": [
        16
      ],
      "name": "hair01_physics_15_15_20_06",
      "rotation": [
        0.4089883267879486,
        -0.27089035511016846,
        0.02275298349559307,
        0.8711080551147461
      ],
      "translation": [
        0.10092020779848099,
        0.008766045793890953,
        0.0039850203320384026
      ]
    },
    {
      "name": "joint3_07",
      "rotation": [
        -0.4143452048301697,
        0.7961939573287964,
        0.20353621244430542,
        0.3911093771457672
      ],
      "translation": [
        0.10209420323371887,
        -4.85722573273506e-17,
        -4.163336342344337e-17
      ]
    },
    {
      "children": [
        18
      ],
      "name": "joint4_08",
      "rotation": [
        -0.3427537977695465,
        0.7666353583335876,
        0.22160495817661285,
        -0.49566251039505005
      ],
      "translation": [
        0.13033214211463928,
        -0.03369941562414169,
        -0.07277780026197433
      ]
    },
    {
      "children": [
        19
      ],
      "name": "hair02_physics_15_15_20_09",
      "rotation": [
        -0.3739977478981018,
        0.26739251613616943,
        -0.09681916981935501,
        0.8827530741691589
      ],
      "translation": [
        0.11185625195503235,
        0.006203211843967438,
        -0.0037464213091880083
      ]
    },
    {
      "name": "joint6_010",
      "rotation": [
        -0.250670850276947,
        0.4281483590602875,
        0.4386822283267975,
        0.7492736577987671
      ],
      "translation": [
        0.10461417585611343,
        -6.938893903907228e-18,
        1.3877787807814457e-17
      ]
    },
    {
      "children": [
        21
      ],
      "name": "joint7_011",
      "rotation": [
        0.35321760177612305,
        -0.41892197728157043,
        -0.5392172336578369,
        0.639520525932312
      ],
      "translation": [
        0.07572516053915024,
        -0.061196211725473404,
        -0.1393381804227829
      ]
    },
    {
      "children": [
        22
      ],
      "name": "hair03_physics_15_20_25_012",
      "rotation": [
        -0.07978808134794235,
        0.023358087986707687,
        0.11436426639556885,
        0.9899541735649109
      ],
      "translation": [
        0.07385057955980301,
        0.0,
        -5.551115123125783e-17
      ]
    },
    {
      "name": "joint9_013",
      "rotation": [
        -0.263328492641449,
        0.39714792370796204,
        0.4858364462852478,
        0.7327309250831604
      ],
      "translation": [
        0.08270131796598434,
        -0.005473089870065451,
        -0.0038709186483174562
      ]
    },
    {
      "children": [
        24
      ],
      "name": "joint10_014",
      "rotation": [
        -0.585962176322937,
        0.6226967573165894,
        0.3553639054298401,
        -0.37764206528663635
      ],
      "translation": [
        -0.006175596732646227,
        -0.0547175295650959,
        -0.1592857539653778
      ]
    },
    {
      "children": [
        25
      ],
      "name": "hair04_physics_15_20_25_015",
      "rotation": [
        -0.10320127010345459,
        0.013136051595211029,
        0.06543343514204025,
        0.9924190640449524
      ],
      "translation": [
        0.09547697752714157,
        -2.7755575615628914e-17,
        -1.3877787807814457e-17
      ]
    },
    {
      "name": "joint12_016",
      "rotation": [
        -0.5064697861671448,
        0.6146828532218933,
        0.3845253586769104,
        0.46668359637260437
      ],
      "translation": [
        0.07795792073011398,
        0.0010684076696634293,
        1.3877787807814457e-17
      ]
    },
    {
      "children": [
        27
      ],
      "name": "joint13_017",
      "rotation": [
        -0.5642424821853638,
        0.6920774579048157,
        0.28446388244628906,
        -0.3489121198654175
      ],
      "translation": [
        -0.07414035499095917,
        -0.0492970272898674,
        -0.14085640013217926
      ]
    },
    {
      "children": [
        28
      ],
      "name": "hair05_physics_15_20_25_018",
      "rotation": [
        0.3153396546840668,
        -0.16748924553394318,
        0.26301702857017517,
        0.8962869644165039
      ],
      "translation": [
        0.08323142677545547,
        -1.3877787807814457e-17,
        0.0
      ]
    },
    {
      "name": "joint15_019",
      "rotation": [
        -0.3860761225223541,
        0.9168471097946167,
        0.03945652395486832,
        0.09370068460702896
      ],
      "translation": [
        0.0773433968424797,
        -0.013588556088507175,
        -0.00024591744295321405
      ]
    },
    {
      "name": "jBone_04",
      "translation": [
        3.3914405114674135e-23,
        -0.019576143473386765,
        -1.3010426069826053e-18
      ]
    }
  ],
  "samplers": [
    {
      "magFilter": 9729,
      "minFilter": 9987,
      "wrapS": 10497,
      "wrapT": 10497
    }
  ],
  "scene": 0,
  "scenes": [
    {
      "name": "Sketchfab_Scene",
      "nodes": [
        0
      ]
    }
  ],
  "skins": [
    {
      "inverseBindMatrices": 20,
      "joints": [
        5,
        10,
        11,
        12,
        13,
        14,
        15,
        16,
        17,
        18,
        19,
        20,
        21,
        22,
        23,
        24,
        25,
        26,
        27,
        28,
        29
      ],
      "skeleton": 5
    }
  ],
  "textures": [
    {
      "sampler": 0,
      "source": 0
    },
    {
      "sampler": 0,
      "source": 1
    },
    {
      "sampler": 0,
      "source": 2
    }
  ]
}
